<svg width="25" height="22" viewBox="0 0 25 22" fill="none" xmlns="http://www.w3.org/2000/svg">
<path d="M12.5 21.9982C12.2741 21.9982 12.0482 21.9104 11.8747 21.7365L1.98424 11.7254C-0.661413 9.04699 -0.661413 4.68723 1.98424 2.00881C4.62989 -0.669605 8.93633 -0.669605 11.582 2.00881L12.4982 2.93638L13.4144 2.00881C16.0601 -0.669605 20.3665 -0.669605 23.0121 2.00881C24.2934 3.30595 25 5.03119 25 6.86803C25 8.70487 24.2934 10.4283 23.0121 11.7272L13.1217 21.7384C12.95 21.914 12.7223 22 12.4964 22L12.5 21.9982ZM6.78402 1.78562C5.44312 1.78562 4.18352 2.31435 3.23477 3.27302C2.28783 4.23352 1.76558 5.5087 1.76558 6.8662C1.76558 8.22371 2.28783 9.49888 3.23477 10.4594L12.4982 19.8393L21.7616 10.4594C23.7187 8.478 23.7187 5.25439 21.7616 3.27485C19.8044 1.29348 16.6203 1.29348 14.6649 3.27485L13.1235 4.83543C12.7783 5.18487 12.2181 5.18487 11.8729 4.83543L10.3314 3.27485C9.38266 2.31618 8.1231 1.78745 6.78221 1.78745L6.78402 1.78562Z" fill="black"/>
</svg>
