<svg width="30" height="30" viewBox="0 0 30 30" fill="none" xmlns="http://www.w3.org/2000/svg">
<path d="M20.0396 20.0398L27 27M19.9564 5.80539C20.8969 6.73207 21.6447 7.83569 22.1566 9.05267C22.6686 10.2696 22.9347 11.5759 22.9396 12.8962C22.9444 14.2165 22.6879 15.5246 22.1848 16.7453C21.6818 17.966 20.9421 19.0751 20.0084 20.0086C19.0748 20.9422 17.9656 21.6817 16.7448 22.1847C15.5241 22.6876 14.2158 22.944 12.8955 22.939C11.5752 22.934 10.2689 22.6678 9.05197 22.1557C7.835 21.6437 6.73142 20.8958 5.80481 19.9553C3.98375 18.0674 2.9767 15.54 3.00041 12.9171C3.02411 10.2942 4.07668 7.78547 5.93156 5.93081C7.78645 4.07615 10.2954 3.02386 12.9183 3.0004C15.5413 2.97694 18.0686 3.9842 19.9564 5.80539V5.80539Z" stroke="#777777" stroke-width="1.95"/>
</svg>
