<svg width="50" height="50" viewBox="0 0 50 50" fill="none" xmlns="http://www.w3.org/2000/svg">
<path d="M33.3993 33.3997L45 45M33.2607 9.67566C34.8281 11.2201 36.0744 13.0595 36.9277 15.0878C37.7811 17.1161 38.2245 19.2932 38.2326 21.4936C38.2406 23.6941 37.8131 25.8744 36.9747 27.9089C36.1363 29.9434 34.9035 31.7918 33.3474 33.3477C31.7913 34.9036 29.9427 36.1362 27.9081 36.9744C25.8734 37.8126 23.693 38.2399 21.4925 38.2317C19.292 38.2234 17.1149 37.7797 15.0866 36.9262C13.0583 36.0728 11.219 34.8263 9.67469 33.2588C6.63959 30.1123 4.96117 25.9 5.00068 21.5285C5.04019 17.157 6.79446 12.9758 9.88594 9.88468C12.9774 6.79359 17.1589 5.03976 21.5306 5.00067C25.9022 4.96157 30.1144 6.64034 33.2607 9.67566V9.67566Z" stroke="black" stroke-width="1.95"/>
</svg>
